<?xml version="1.0" encoding="iso-8859-1"?>
<!-- Generator: Adobe Illustrator 23.0.1, SVG Export Plug-In . SVG Version: 6.00 Build 0)  -->
<svg version="1.1" id="Layer_1" xmlns="http://www.w3.org/2000/svg" xmlns:xlink="http://www.w3.org/1999/xlink" x="0px" y="0px"
	 viewBox="0 0 600 600" style="enable-background:new 0 0 600 600;" xml:space="preserve">
<g>
	<path style="fill:#424242;stroke:#FFFFFF;stroke-miterlimit:10;" d="M300.021,96.492C194.126,96.492,108,182.618,108,288.513
		c0,105.864,86.126,191.979,192.021,191.979C405.884,480.492,492,394.376,492,288.513C492,182.618,405.884,96.492,300.021,96.492
		L300.021,96.492z M385.662,244.563c0.082,1.897,0.124,3.795,0.124,5.723c0,58.407-44.435,125.714-125.725,125.714
		c-24.976,0-48.219-7.291-67.75-19.809c3.465,0.402,6.971,0.598,10.508,0.598c20.748,0,39.805-7.085,54.912-18.933
		c-19.335-0.361-35.659-13.127-41.289-30.689c2.691,0.516,5.476,0.804,8.291,0.804c4.032,0,7.981-0.526,11.684-1.536
		c-20.222-4.063-35.442-21.913-35.442-43.342c0-0.196,0-0.361,0-0.557c5.96,3.3,12.766,5.311,20.016,5.517
		c-11.88-7.899-19.655-21.428-19.655-36.783c0-8.095,2.176-15.664,5.96-22.192c21.789,26.708,54.375,44.311,91.076,46.167
		c-0.763-3.228-1.124-6.61-1.124-10.075c0-24.408,19.779-44.187,44.187-44.187c12.725,0,24.161,5.352,32.266,13.932
		c10.065-1.97,19.49-5.631,28.07-10.714c-3.341,10.312-10.312,18.974-19.448,24.45c8.94-1.042,17.479-3.424,25.368-6.96
		C401.811,230.548,394.283,238.324,385.662,244.563L385.662,244.563z M385.662,244.563"/>
</g>
</svg>
