<?xml version="1.0" encoding="iso-8859-1"?>
<!-- Generator: Adobe Illustrator 23.0.1, SVG Export Plug-In . SVG Version: 6.00 Build 0)  -->
<svg version="1.1" id="Layer_1" xmlns="http://www.w3.org/2000/svg" xmlns:xlink="http://www.w3.org/1999/xlink" x="0px" y="0px"
	 viewBox="0 0 600 600" style="enable-background:new 0 0 600 600;" xml:space="preserve">
<g>
	<path style="fill:#424242;stroke:#FFFFFF;stroke-miterlimit:10;" d="M300,108c-106.039,0-192,85.961-192,192s85.961,192,192,192
		s192-85.961,192-192S406.039,108,300,108L300,108z M228,396c-13.254,0-24-10.746-24-24s10.746-24,24-24c13.254,0,24,10.746,24,24
		S241.254,396,228,396L228,396z M294,396c0-49.625-40.375-90-90-90v-36c69.477,0,126,56.523,126,126H294z M366,396
		c0-43.27-16.852-83.953-47.449-114.551C287.953,250.852,247.273,234,204,234v-36c52.887,0,102.609,20.598,140.008,57.992
		C381.402,293.391,402,343.113,402,396H366z M366,396"/>
</g>
</svg>
