<?xml version="1.0" encoding="iso-8859-1"?>
<!-- Generator: Adobe Illustrator 23.0.1, SVG Export Plug-In . SVG Version: 6.00 Build 0)  -->
<svg version="1.1" id="Layer_1" xmlns="http://www.w3.org/2000/svg" xmlns:xlink="http://www.w3.org/1999/xlink" x="0px" y="0px"
	 viewBox="0 0 600 600" style="enable-background:new 0 0 600 600;" xml:space="preserve">
<g>
	<path style="fill:#424242;stroke:#FFFFFF;stroke-miterlimit:10;" d="M300.021,108C194.126,108,108,194.126,108,300.021
		C108,405.884,194.126,492,300.021,492C405.884,492,492,405.884,492,300.021C492,194.126,405.884,108,300.021,108L300.021,108z
		 M347.755,306.744h-31.215c0,49.91,0,111.339,0,111.339h-46.332c0,0,0-60.821,0-111.339h-21.985v-39.31h21.985v-25.46
		c0-18.242,8.662-46.724,46.734-46.724l34.318,0.124v38.226c0,0-20.871,0-24.893,0c-4.073,0-9.827,2.011-9.827,10.715v23.119h35.247
		L347.755,306.744z M347.755,306.744"/>
</g>
</svg>
