<?xml version="1.0" encoding="iso-8859-1"?>
<!-- Generator: Adobe Illustrator 23.0.1, SVG Export Plug-In . SVG Version: 6.00 Build 0)  -->
<svg version="1.1" id="Layer_1" xmlns="http://www.w3.org/2000/svg" xmlns:xlink="http://www.w3.org/1999/xlink" x="0px" y="0px"
	 viewBox="0 0 600 600" style="enable-background:new 0 0 600 600;" xml:space="preserve">
<g>
	<path style="fill:#545657;stroke:#545657;stroke-miterlimit:10;" d="M293.641,102C181.338,102,90,193.338,90,305.641
		c0,112.27,91.338,203.597,203.641,203.597c112.27,0,203.597-91.327,203.597-203.597C497.238,193.338,405.911,102,293.641,102
		L293.641,102z M344.264,312.771H311.16c0,52.931,0,118.077,0,118.077h-49.136c0,0,0-64.501,0-118.077h-23.316v-41.689h23.316
		v-27.001c0-19.346,9.186-49.551,49.562-49.551l36.395,0.132v40.54c0,0-22.134,0-26.4,0c-4.319,0-10.422,2.133-10.422,11.363v24.518
		h37.38L344.264,312.771z M344.264,312.771"/>
</g>
</svg>
