<svg id="Layer_1" data-name="Layer 1" xmlns="http://www.w3.org/2000/svg" viewBox="0 0 38.24 38.24"><defs><style>.cls-1{fill:#424242;stroke:#fff;stroke-miterlimit:10;}</style></defs><title>twitter</title><path class="cls-1" d="M299.62,281a18.62,18.62,0,1,0,18.62,18.62A18.64,18.64,0,0,0,299.62,281Zm8.31,14.36c0,.18,0,.37,0,.55a12.18,12.18,0,0,1-18.76,10.27,8.43,8.43,0,0,0,1,.06,8.66,8.66,0,0,0,5.33-1.83,4.29,4.29,0,0,1-4-3,4.21,4.21,0,0,0,1.93-.07,4.29,4.29,0,0,1-3.43-4.2v-.06a4.2,4.2,0,0,0,1.94.54,4.29,4.29,0,0,1-1.33-5.72,12.17,12.17,0,0,0,8.83,4.48,4.6,4.6,0,0,1-.11-1,4.29,4.29,0,0,1,7.42-2.94,8.6,8.6,0,0,0,2.72-1,4.33,4.33,0,0,1-1.89,2.37,8.7,8.7,0,0,0,2.46-.68,8.81,8.81,0,0,1-2.13,2.22Zm0,0" transform="translate(-280.5 -280.5)"/></svg>