<?xml version="1.0" encoding="iso-8859-1"?>
<!-- Generator: Adobe Illustrator 23.0.1, SVG Export Plug-In . SVG Version: 6.00 Build 0)  -->
<svg version="1.1" id="Layer_1" xmlns="http://www.w3.org/2000/svg" xmlns:xlink="http://www.w3.org/1999/xlink" x="0px" y="0px"
	 viewBox="0 0 600 600" style="enable-background:new 0 0 600 600;" xml:space="preserve">
<g>
	<path style="fill:#424242;stroke:#FFFFFF;stroke-miterlimit:10;" d="M295.146,55.238c-137.266,0-248.908,111.642-248.908,248.908
		C46.238,441.372,157.88,553,295.146,553C432.372,553,544,441.372,544,304.146C544,166.88,432.372,55.238,295.146,55.238
		L295.146,55.238z M406.159,247.175c0.107,2.459,0.16,4.919,0.16,7.419c0,75.711-57.598,162.957-162.971,162.957
		c-32.375,0-62.504-9.451-87.821-25.678c4.491,0.521,9.036,0.775,13.621,0.775c26.894,0,51.597-9.183,71.18-24.542
		c-25.063-0.468-46.223-17.016-53.522-39.781c3.489,0.669,7.098,1.043,10.747,1.043c5.226,0,10.346-0.681,15.145-1.992
		c-26.212-5.267-45.942-28.405-45.942-56.182c0-0.254,0-0.468,0-0.722c7.726,4.278,16.548,6.884,25.946,7.151
		c-15.399-10.239-25.478-27.777-25.478-47.68c0-10.493,2.82-20.305,7.726-28.766c28.245,34.621,70.484,57.439,118.057,59.845
		c-0.989-4.184-1.457-8.569-1.457-13.06c0-31.639,25.638-57.278,57.278-57.278c16.495,0,31.319,6.938,41.825,18.059
		c13.047-2.553,25.264-7.299,36.385-13.888c-4.331,13.367-13.367,24.595-25.21,31.693c11.589-1.35,22.657-4.438,32.883-9.023
		C427.092,229.009,417.334,239.088,406.159,247.175L406.159,247.175z M406.159,247.175"/>
</g>
</svg>
