<?xml version="1.0" encoding="iso-8859-1"?>
<!-- Generator: Adobe Illustrator 23.0.1, SVG Export Plug-In . SVG Version: 6.00 Build 0)  -->
<svg version="1.1" id="Layer_1" xmlns="http://www.w3.org/2000/svg" xmlns:xlink="http://www.w3.org/1999/xlink" x="0px" y="0px"
	 viewBox="0 0 600 600" style="enable-background:new 0 0 600 600;" xml:space="preserve">
<g>
	<path style="fill:#424242;" d="M180.319,322.868h19.014v102.903h17.994V322.868h19.348V306h-56.356V322.868z M180.319,322.868"/>
	<path style="fill:#424242;" d="M332.42,335.444c-5.928,0-11.477,3.245-16.718,9.664V306h-16.155v119.771h16.155v-8.637
		c5.418,6.668,10.966,9.887,16.718,9.887c6.438,0,10.757-3.396,12.929-10.044c1.079-3.782,1.636-9.71,1.636-17.994v-35.529
		c0-8.46-0.556-14.336-1.636-17.941C343.203,338.82,338.858,335.444,332.42,335.444L332.42,335.444z M330.81,400.26
		c0,8.081-2.355,12.039-7.027,12.039c-2.663,0-5.372-1.276-8.081-3.985v-54.393c2.709-2.657,5.418-3.932,8.081-3.932
		c4.652,0,7.027,4.142,7.027,12.19V400.26z M330.81,400.26"/>
	<path style="fill:#424242;" d="M269.364,404.735c-3.579,5.058-6.975,7.564-10.22,7.564c-2.146,0-3.402-1.276-3.782-3.782
		c-0.157-0.51-0.157-2.48-0.157-6.288v-65.713h-16.181v70.567c0,6.314,0.563,10.587,1.433,13.296
		c1.636,4.521,5.215,6.641,10.43,6.641c5.954,0,12.065-3.605,18.478-10.966v9.743h16.181v-89.281h-16.181V404.735z M269.364,404.735
		"/>
	<path style="fill:#424242;" d="M283.242,254.067c5.267,0,7.799-4.168,7.799-12.497v-37.957c0-8.336-2.532-12.497-7.799-12.497
		c-5.261,0-7.793,4.161-7.793,12.497v37.957C275.449,249.899,277.981,254.067,283.242,254.067L283.242,254.067z M283.242,254.067"/>
	<path style="fill:#424242;" d="M294.156,65.312c-132.471,0-239.844,107.372-239.844,239.844
		C54.312,437.628,161.684,545,294.156,545C426.628,545,534,437.628,534,305.156C534,172.684,426.628,65.312,294.156,65.312
		L294.156,65.312z M320.839,177.493h16.286v66.399c0,3.834,0,5.83,0.203,6.367c0.36,2.526,1.636,3.834,3.834,3.834
		c3.272,0,6.694-2.532,10.325-7.668v-68.932h16.331v90.197h-16.331v-9.841c-6.517,7.459-12.7,11.064-18.687,11.064
		c-5.234,0-8.892-2.12-10.528-6.694c-0.896-2.735-1.433-7.027-1.433-13.394V177.493z M259.118,206.911
		c0-9.664,1.636-16.691,5.11-21.265c4.521-6.164,10.888-9.252,19.014-9.252c8.205,0,14.545,3.088,19.067,9.252
		c3.428,4.574,5.064,11.601,5.064,21.265v31.564c0,9.612-1.636,16.717-5.064,21.213c-4.522,6.157-10.862,9.226-19.067,9.226
		c-8.127,0-14.493-3.069-19.014-9.226c-3.474-4.495-5.11-11.627-5.11-21.213V206.911z M215.41,146.669l12.857,47.509l12.373-47.509
		h18.321l-21.802,72v49.021h-18.118v-49.021c-1.636-8.696-5.267-21.422-11.097-38.29c-3.808-11.221-7.793-22.495-11.601-33.71
		H215.41z M423.284,433.669c-3.298,14.212-14.931,24.713-28.934,26.271c-33.18,3.71-66.759,3.736-100.221,3.71
		c-33.429,0.026-67.014,0-100.188-3.71c-14.009-1.557-25.662-12.033-28.907-26.271c-4.678-20.27-4.678-42.406-4.678-63.259
		c0-20.879,0.052-42.988,4.731-63.259c3.272-14.238,14.899-24.74,28.907-26.303c33.173-3.703,66.759-3.73,100.214-3.703
		c33.429-0.026,67.014,0,100.195,3.703c14.002,1.564,25.656,12.065,28.927,26.303c4.652,20.27,4.626,42.38,4.626,63.259
		C427.956,391.263,427.936,413.399,423.284,433.669L423.284,433.669z M423.284,433.669"/>
	<path style="fill:#424242;" d="M383.947,335.444c-8.284,0-14.696,3.043-19.374,9.154c-3.422,4.495-5.012,11.477-5.012,21.01v31.283
		c0,9.481,1.767,16.508,5.215,20.984c4.652,6.078,11.097,9.121,19.557,9.121c8.454,0,15.075-3.193,19.551-9.658
		c1.97-2.866,3.246-6.111,3.782-9.69c0.151-1.636,0.36-5.215,0.36-10.423v-2.356h-16.515c0,6.464-0.203,10.07-0.36,10.94
		c-0.916,4.318-3.245,6.491-7.204,6.491c-5.575,0-8.284-4.116-8.284-12.366v-15.848h32.362v-18.478
		c0-9.533-1.636-16.515-5.012-21.036C398.492,338.487,392.047,335.444,383.947,335.444L383.947,335.444z M391.844,370.639h-16.181
		v-8.257c0-8.251,2.709-12.393,8.127-12.393c5.346,0,8.054,4.142,8.054,12.393V370.639z M391.844,370.639"/>
</g>
</svg>
