<?xml version="1.0" encoding="iso-8859-1"?>
<!-- Generator: Adobe Illustrator 23.0.1, SVG Export Plug-In . SVG Version: 6.00 Build 0)  -->
<svg version="1.1" id="Layer_1" xmlns="http://www.w3.org/2000/svg" xmlns:xlink="http://www.w3.org/1999/xlink" x="0px" y="0px"
	 viewBox="0 0 600 600" style="enable-background:new 0 0 600 600;" xml:space="preserve">
<g>
	<path style="fill:#424242;" d="M211.559,314.204h15.248v82.524h14.43v-82.524h15.516v-13.527h-45.195V314.204z M211.559,314.204"/>
	<path style="fill:#424242;" d="M333.538,324.29c-4.754,0-9.204,2.603-13.407,7.75v-31.363h-12.955v96.051h12.955v-6.926
		c4.345,5.347,8.795,7.929,13.407,7.929c5.163,0,8.626-2.723,10.369-8.055c0.866-3.033,1.312-7.787,1.312-14.43v-28.493
		c0-6.785-0.446-11.497-1.312-14.388C342.185,326.997,338.701,324.29,333.538,324.29L333.538,324.29z M332.246,376.269
		c0,6.48-1.889,9.655-5.635,9.655c-2.136,0-4.308-1.023-6.48-3.195v-43.621c2.173-2.13,4.345-3.154,6.48-3.154
		c3.731,0,5.635,3.322,5.635,9.776V376.269z M332.246,376.269"/>
	<path style="fill:#424242;" d="M282.969,379.858c-2.87,4.056-5.593,6.066-8.196,6.066c-1.721,0-2.729-1.023-3.033-3.033
		c-0.126-0.409-0.126-1.989-0.126-5.043V325.15h-12.977v56.592c0,5.064,0.451,8.49,1.149,10.663
		c1.312,3.626,4.182,5.326,8.364,5.326c4.775,0,9.676-2.891,14.818-8.795v7.813h12.977V325.15h-12.977V379.858z M282.969,379.858"/>
	<path style="fill:#424242;" d="M294.099,259.029c4.224,0,6.255-3.342,6.255-10.022v-30.44c0-6.685-2.031-10.022-6.255-10.022
		c-4.219,0-6.25,3.337-6.25,10.022v30.44C287.849,255.687,289.88,259.029,294.099,259.029L294.099,259.029z M294.099,259.029"/>
	<path style="fill:#424242;" d="M302.851,107.656c-106.236,0-192.344,86.108-192.344,192.344
		c0,106.236,86.108,192.344,192.344,192.344c106.236,0,192.344-86.108,192.344-192.344
		C495.195,193.764,409.088,107.656,302.851,107.656L302.851,107.656z M324.25,197.62h13.061v53.249c0,3.075,0,4.675,0.163,5.106
		c0.288,2.025,1.312,3.075,3.075,3.075c2.624,0,5.368-2.031,8.28-6.15v-55.28h13.097v72.334h-13.097v-7.892
		c-5.226,5.982-10.185,8.873-14.986,8.873c-4.198,0-7.131-1.7-8.443-5.368c-0.719-2.193-1.149-5.636-1.149-10.741V197.62z
		 M274.752,221.212c0-7.75,1.312-13.386,4.098-17.054c3.626-4.943,8.731-7.419,15.248-7.419c6.58,0,11.665,2.476,15.291,7.419
		c2.749,3.668,4.061,9.303,4.061,17.054v25.313c0,7.708-1.312,13.407-4.061,17.012c-3.626,4.938-8.711,7.399-15.291,7.399
		c-6.517,0-11.623-2.461-15.248-7.399c-2.786-3.605-4.098-9.324-4.098-17.012V221.212z M239.701,172.901l10.311,38.1l9.923-38.1
		h14.692l-17.484,57.741v39.313h-14.53v-39.313c-1.312-6.974-4.224-17.18-8.899-30.707c-3.054-8.999-6.25-18.04-9.304-27.034
		H239.701z M406.406,403.062c-2.645,11.397-11.974,19.819-23.203,21.068c-26.609,2.975-53.538,2.996-80.372,2.975
		c-26.808,0.021-53.743,0-80.346-2.975c-11.234-1.249-20.58-9.65-23.182-21.068c-3.752-16.256-3.752-34.008-3.752-50.731
		c0-16.744,0.042-34.475,3.794-50.731c2.624-11.418,11.948-19.84,23.182-21.094c26.604-2.97,53.538-2.991,80.367-2.97
		c26.809-0.021,53.743,0,80.352,2.97c11.229,1.254,20.575,9.676,23.198,21.094c3.731,16.256,3.71,33.987,3.71,50.731
		C410.153,369.054,410.137,386.806,406.406,403.062L406.406,403.062z M406.406,403.062"/>
	<path style="fill:#424242;" d="M374.86,324.29c-6.643,0-11.785,2.44-15.537,7.341c-2.744,3.605-4.019,9.204-4.019,16.849v25.087
		c0,7.603,1.417,13.239,4.182,16.828c3.731,4.875,8.899,7.315,15.684,7.315c6.779,0,12.09-2.561,15.679-7.745
		c1.58-2.298,2.603-4.901,3.033-7.771c0.121-1.312,0.289-4.182,0.289-8.359v-1.889h-13.244c0,5.184-0.163,8.076-0.288,8.773
		c-0.735,3.463-2.603,5.205-5.777,5.205c-4.471,0-6.643-3.301-6.643-9.917v-12.709h25.953v-14.818c0-7.645-1.312-13.244-4.019-16.87
		C386.524,326.73,381.356,324.29,374.86,324.29L374.86,324.29z M381.193,352.515h-12.977v-6.622c0-6.617,2.173-9.938,6.517-9.938
		c4.287,0,6.459,3.322,6.459,9.938V352.515z M381.193,352.515"/>
</g>
</svg>
