<svg id="Layer_1" data-name="Layer 1" xmlns="http://www.w3.org/2000/svg" viewBox="0 0 74.31 74.31"><defs><style>.cls-1{fill:#424242;stroke:#fff;stroke-miterlimit:10;}</style></defs><title>youtube</title><path class="cls-1" d="M282.26,302.36h2.9v15.73h2.75V302.36h3v-2.57h-8.61Zm0,0" transform="translate(-262.5 -262.5)"/><path class="cls-1" d="M305.5,304.29a3.35,3.35,0,0,0-2.55,1.47v-6h-2.47v18.3H303v-1.32a3.37,3.37,0,0,0,2.55,1.51,2,2,0,0,0,2-1.53,11.18,11.18,0,0,0,.25-2.75v-5.43a10.84,10.84,0,0,0-.25-2.75,2,2,0,0,0-2-1.53Zm-.24,9.9c0,1.24-.36,1.84-1.08,1.84a1.74,1.74,0,0,1-1.23-.61v-8.31a1.77,1.77,0,0,1,1.23-.6c.71,0,1.08.63,1.08,1.86Zm0,0" transform="translate(-262.5 -262.5)"/><path class="cls-1" d="M295.87,314.88c-.55.77-1.07,1.15-1.57,1.15-.32,0-.51-.19-.57-.58a5.65,5.65,0,0,1,0-1v-10h-2.47v10.78a7.21,7.21,0,0,0,.22,2,1.52,1.52,0,0,0,1.59,1,4,4,0,0,0,2.83-1.68v1.49h2.47V304.45h-2.47Zm0,0" transform="translate(-262.5 -262.5)"/><path class="cls-1" d="M298,291.85c.8,0,1.19-.64,1.19-1.91v-5.8c0-1.28-.39-1.91-1.19-1.91s-1.19.63-1.19,1.91v5.8c0,1.27.38,1.91,1.19,1.91Zm0,0" transform="translate(-262.5 -262.5)"/><path class="cls-1" d="M299.66,263a36.66,36.66,0,1,0,36.65,36.66A36.66,36.66,0,0,0,299.66,263Zm4.07,17.14h2.49v10.15a6.06,6.06,0,0,0,0,1c.06.38.25.58.59.58.5,0,1-.39,1.58-1.17V280.14h2.49v13.79h-2.49v-1.5a4,4,0,0,1-2.86,1.69,1.54,1.54,0,0,1-1.61-1,7.16,7.16,0,0,1-.22-2Zm-9.43,4.5a5.37,5.37,0,0,1,.78-3.25,3.71,3.71,0,0,1,5.82,0,5.37,5.37,0,0,1,.78,3.25v4.83a5.35,5.35,0,0,1-.78,3.24,3.71,3.71,0,0,1-5.82,0,5.35,5.35,0,0,1-.78-3.24Zm-6.68-9.21,2,7.27,1.89-7.27h2.8l-3.34,11v7.49h-2.76v-7.49a44.81,44.81,0,0,0-1.7-5.85c-.58-1.72-1.19-3.44-1.77-5.16Zm31.77,43.87a5.16,5.16,0,0,1-4.42,4,137.2,137.2,0,0,1-15.32.57,137.11,137.11,0,0,1-15.31-.57,5.16,5.16,0,0,1-4.42-4,44,44,0,0,1-.71-9.67,43.38,43.38,0,0,1,.72-9.67,5.17,5.17,0,0,1,4.42-4,137.1,137.1,0,0,1,15.31-.56,137.28,137.28,0,0,1,15.32.56,5.17,5.17,0,0,1,4.42,4,44,44,0,0,1,.7,9.67,44,44,0,0,1-.71,9.67Zm0,0" transform="translate(-262.5 -262.5)"/><path class="cls-1" d="M313.38,304.29a3.5,3.5,0,0,0-3,1.39,5.28,5.28,0,0,0-.77,3.21v4.79a5.23,5.23,0,0,0,.8,3.2,3.53,3.53,0,0,0,3,1.4,3.43,3.43,0,0,0,3-1.48,3.47,3.47,0,0,0,.57-1.48,15.69,15.69,0,0,0,.06-1.59v-.36h-2.53c0,1,0,1.54,0,1.67a1.06,1.06,0,0,1-1.1,1c-.85,0-1.27-.63-1.27-1.89v-2.42h4.95v-2.83a5.35,5.35,0,0,0-.77-3.21,3.42,3.42,0,0,0-2.91-1.39Zm1.21,5.37h-2.48V308.4c0-1.26.42-1.89,1.24-1.89s1.24.63,1.24,1.89Zm0,0" transform="translate(-262.5 -262.5)"/></svg>